<svg width="138" height="120" xmlns="http://www.w3.org/2000/svg"><g fill="none" fill-rule="evenodd"><path d="M82.578 55.21l2.201 2.167c.084-.417.149-.834.193-1.25l-2.203-2.17c-.045.417-.107.835-.19 1.253m2.45-1.19c-.03-.55-.091-1.095-.192-1.63l-2.215-2.182c.103.543.182 1.092.212 1.65l2.195 2.162z" fill="#DCA815" fill-rule="nonzero"/><path d="M78.205 63.157c-5.233 5.154-12.982 6.02-18.035 2.265.31.404.647.793 1.02 1.16 4.95 4.875 13.552 4.31 19.211-1.262 5.659-5.574 6.232-14.045 1.28-18.92a11.13 11.13 0 00-1.176-1.004c3.814 4.975 2.934 12.607-2.3 17.761" fill="#F4BF1A" fill-rule="nonzero"/><path d="M79.486 44.237c4.952 4.876 4.379 13.347-1.28 18.92-5.66 5.573-14.261 6.138-19.213 1.262-4.951-4.877-4.378-13.348 1.281-18.921 5.66-5.573 14.26-6.138 19.212-1.261" fill="#FFD949" fill-rule="nonzero"/><path d="M67.427 65.698c-2.713 0-5.188-.967-6.97-2.72-4.137-4.075-3.562-11.27 1.28-16.038 2.57-2.531 5.965-3.982 9.315-3.982 2.714 0 5.188.966 6.97 2.72 4.137 4.074 3.562 11.269-1.28 16.038-2.57 2.53-5.965 3.982-9.315 3.982" fill="#F4BF1A" fill-rule="nonzero"/><path d="M78.556 62.782l2.203 2.17c.238-.25.469-.505.688-.765l-2.2-2.165c-.218.259-.453.51-.69.76M76.64 64.5l2.205 2.17c.271-.208.537-.427.799-.655l-2.2-2.166c-.263.228-.53.443-.803.65m3.545-3.716l2.203 2.169c.2-.29.389-.585.566-.884l-2.197-2.164c-.178.299-.372.59-.572.879m1.317-2.307l2.205 2.17a15.5 15.5 0 00.425-1.021l-2.201-2.169c-.13.343-.274.683-.429 1.02m-7.075 7.449l2.203 2.169c.312-.166.622-.34.926-.53l-2.204-2.17c-.305.189-.612.364-.925.53m-2.555 1.088l2.203 2.169c.358-.116.716-.244 1.07-.388l-2.202-2.168c-.354.144-.71.272-1.07.387m-3.689.692l2.204 2.171c.44-.024.883-.07 1.325-.136l-2.205-2.172a14.25 14.25 0 01-1.324.137m-4.072-.406l2.21 2.176c.59.156 1.193.27 1.806.338l-2.209-2.175a12.627 12.627 0 01-1.807-.339" fill="#DCA815" fill-rule="nonzero"/><path d="M67.797 52.674l2.357.004c2.425.005 4.367.828 3.706 3.64-.662 2.811-2.99 3.644-5.415 3.66l-5.516.034 2.647-11.373 9.068.057-.624 2.654-5.909-.02-.314 1.344zm-1.104 4.728l2.323-.008c.734-.003 1.394-.198 1.599-1.069.204-.87-.366-1.064-1.1-1.063l-2.323.003-.499 2.137z" fill="#FFD949"/><path d="M74.315 88.016l1.924.154a8.595 8.595 0 00-.41-.677l-1.927-.153c.147.218.285.443.413.676m.695-1.554a7.786 7.786 0 00-.747-.704l-1.937-.154c.267.218.526.45.764.705l1.92.153z" fill="#DCA815" fill-rule="nonzero"/><path d="M75.414 93.578c-.435 4.57-3.797 8.098-7.725 8.33.31.069.628.12.953.145 4.33.346 8.221-3.38 8.692-8.322.47-4.941-2.659-9.228-6.988-9.573a6.957 6.957 0 00-.967-.008c3.825.85 6.47 4.858 6.035 9.428" fill="#F4BF1A" fill-rule="nonzero"/><path d="M68.426 84.005c4.33.345 7.458 4.631 6.988 9.573-.47 4.942-4.362 8.668-8.692 8.322-4.33-.345-7.458-4.631-6.988-9.573.47-4.942 4.362-8.668 8.692-8.322" fill="#FFD949" fill-rule="nonzero"/><path d="M71.274 99.125c-1.3 1.09-2.872 1.621-4.43 1.497-3.617-.288-6.233-3.964-5.83-8.193.214-2.244 1.256-4.302 2.86-5.648 1.3-1.09 2.872-1.622 4.43-1.498 3.617.289 6.232 3.964 5.83 8.193-.214 2.244-1.256 4.303-2.86 5.649" fill="#F4BF1A" fill-rule="nonzero"/><path d="M75.431 93.257l1.926.154c.014-.215.022-.43.022-.642l-1.922-.153c-.001.212-.012.426-.026.641m-.227 1.593l1.927.153c.047-.208.086-.42.12-.634l-1.924-.154c-.034.215-.076.425-.123.634m.204-3.204l1.926.154a10.04 10.04 0 00-.084-.65l-1.921-.154c.035.215.059.432.08.65m-.297-1.633l1.927.153a9.39 9.39 0 00-.206-.66l-1.926-.153c.077.216.144.436.205.66m-.395 6.408l1.926.154a9.8 9.8 0 00.23-.626l-1.927-.153a9.97 9.97 0 01-.229.625m-.787 1.548l1.926.153c.125-.2.245-.404.357-.615l-1.925-.154a9.546 9.546 0 01-.357.616m-1.488 1.813l1.927.154c.201-.189.395-.388.58-.598l-1.928-.154c-.186.21-.378.41-.58.598m-2.112 1.441l1.933.154c.345-.162.679-.35 1-.564l-1.931-.154a7.892 7.892 0 01-1.002.564" fill="#DCA815" fill-rule="nonzero"/><path d="M66.22 92.74l1.13-.944c1.162-.973 2.423-1.358 3.235.253.813 1.612.033 2.946-1.122 3.928l-2.627 2.233-3.302-6.51 4.365-3.615.768 1.521-2.838 2.365.39.77zm1.37 2.707l1.109-.937c.35-.296.588-.655.336-1.154-.252-.498-.602-.362-.954-.067l-1.11.935.619 1.223z" fill="#FFD949"/><path d="M107.753 115.768l.183 1.921c.208-.165.406-.34.595-.521l-.183-1.924c-.19.182-.387.357-.595.524m1.652.414a7.71 7.71 0 00.563-.857l-.184-1.935a7.71 7.71 0 01-.562.875l.183 1.917z" fill="#DCA815" fill-rule="nonzero"/><path d="M102.467 117.816c-4.577.365-8.635-2.333-9.545-6.162-.014.319-.009.64.022.965.412 4.324 4.757 7.509 9.705 7.114 4.949-.395 8.626-4.22 8.215-8.544a6.957 6.957 0 00-.16-.953c-.174 3.914-3.66 7.215-8.237 7.58" fill="#F4BF1A" fill-rule="nonzero"/><path d="M110.681 109.272c.412 4.324-3.266 8.149-8.214 8.544-4.949.395-9.294-2.79-9.705-7.115-.412-4.324 3.266-8.149 8.214-8.544 4.949-.395 9.294 2.79 9.705 7.115" fill="#FFD949" fill-rule="nonzero"/><path d="M96.286 114.702c-1.3-1.09-2.096-2.547-2.244-4.103-.344-3.612 2.821-6.826 7.056-7.163 2.247-.18 4.455.49 6.059 1.835 1.3 1.09 2.096 2.547 2.244 4.103.344 3.612-2.821 6.826-7.056 7.164-2.246.179-4.455-.49-6.06-1.836" fill="#F4BF1A" fill-rule="nonzero"/><path d="M102.786 117.777l.183 1.924c.214-.024.427-.053.636-.09l-.183-1.92c-.209.036-.422.062-.636.086m-1.607.053l.183 1.924c.213.01.429.012.645.008l-.183-1.921a9.864 9.864 0 01-.645-.011m3.191-.355l.182 1.923c.213-.059.422-.124.626-.195l-.182-1.92a9.288 9.288 0 01-.627.192m1.557-.575l.184 1.924a9.39 9.39 0 00.614-.318l-.183-1.923c-.2.113-.405.217-.615.316m-6.379.724l.183 1.924a9.8 9.8 0 00.656.118l-.183-1.924a9.97 9.97 0 01-.656-.118m-1.66-.505l.183 1.923c.218.088.44.17.668.244l-.183-1.922a9.546 9.546 0 01-.668-.245m-2.045-1.151l.184 1.925c.22.165.45.321.689.467l-.184-1.925a8.934 8.934 0 01-.689-.467m-1.786-1.83l.184 1.93c.22.311.463.608.729.887l-.183-1.929a7.892 7.892 0 01-.73-.888" fill="#DCA815" fill-rule="nonzero"/><path d="M101.695 108.615l1.127.95c1.16.976 1.758 2.15.312 3.23s-2.895.544-4.063-.423l-2.655-2.2 5.837-4.381 4.318 3.67-1.364 1.02-2.822-2.383-.69.517zm-2.428 1.82l1.116.93c.352.293.747.465 1.194.13.448-.335.253-.656-.1-.95l-1.112-.932-1.098.822z" fill="#FFD949"/><path d="M113.09 9.711l1.375 1.355c.052-.26.093-.522.12-.782l-1.376-1.356a8.736 8.736 0 01-.12.783m1.532-.744a7.786 7.786 0 00-.12-1.018l-1.384-1.364c.064.34.114.682.132 1.031l1.372 1.351z" fill="#DCA815" fill-rule="nonzero"/><path d="M110.357 14.678c-3.272 3.222-8.115 3.763-11.272 1.416.193.252.404.495.636.724 3.095 3.048 8.471 2.695 12.008-.788 3.537-3.483 3.895-8.778.8-11.826a6.957 6.957 0 00-.735-.627c2.384 3.11 1.834 7.88-1.437 11.101" fill="#F4BF1A" fill-rule="nonzero"/><path d="M111.157 2.853c3.095 3.048 2.737 8.342-.8 11.825-3.537 3.483-8.913 3.836-12.008.789-3.095-3.048-2.736-8.342.8-11.826 3.538-3.483 8.913-3.836 12.008-.788" fill="#FFD949" fill-rule="nonzero"/><path d="M103.62 16.266c-1.696 0-3.243-.604-4.356-1.7-2.586-2.546-2.227-7.043.8-10.024 1.606-1.581 3.728-2.488 5.822-2.488 1.696 0 3.242.604 4.356 1.7 2.585 2.546 2.226 7.043-.8 10.023-1.606 1.582-3.728 2.49-5.822 2.49" fill="#F4BF1A" fill-rule="nonzero"/><path d="M110.576 14.444l1.376 1.355c.15-.156.294-.315.43-.477l-1.374-1.354c-.137.163-.283.32-.432.476m-1.197 1.073l1.377 1.357c.17-.13.336-.267.5-.41l-1.376-1.354c-.164.143-.331.277-.501.407m2.216-2.323l1.376 1.356c.125-.182.243-.366.354-.552l-1.373-1.353c-.111.187-.233.369-.357.55m.823-1.443l1.378 1.357a9.39 9.39 0 00.265-.639l-1.376-1.355c-.08.215-.17.427-.267.637m-4.422 4.656l1.377 1.356a9.8 9.8 0 00.578-.332l-1.377-1.356a9.97 9.97 0 01-.578.332m-1.596.68l1.375 1.355c.225-.073.448-.152.67-.242l-1.377-1.355c-.22.09-.444.17-.669.242m-2.305.432l1.377 1.357c.275-.015.552-.044.828-.085l-1.378-1.357c-.276.04-.552.07-.827.085m-2.545-.254l1.381 1.36c.369.098.746.168 1.129.212l-1.38-1.36a7.892 7.892 0 01-1.13-.212" fill="#DCA815" fill-rule="nonzero"/><path d="M103.852 8.126l1.473.003c1.515.003 2.729.517 2.315 2.275-.413 1.757-1.868 2.277-3.384 2.287l-3.447.022 1.654-7.109 5.668.036-.39 1.659-3.693-.013-.196.84zm-.69 2.955l1.451-.005c.46-.001.872-.124 1-.668.127-.544-.229-.665-.688-.664l-1.452.001-.312 1.336z" fill="#FFD949"/><path d="M119.276 64.876l.116 1.217c.131-.105.257-.215.377-.33l-.116-1.219a6 6 0 01-.377.332m1.046.262c.13-.174.25-.355.357-.543l-.117-1.225c-.107.19-.223.377-.356.554l.116 1.214z" fill="#DCA815" fill-rule="nonzero"/><path d="M115.928 66.173c-2.899.231-5.469-1.478-6.045-3.902a4.4 4.4 0 00.014.61c.26 2.739 3.013 4.756 6.146 4.506 3.134-.25 5.464-2.673 5.203-5.411a4.406 4.406 0 00-.102-.604c-.11 2.48-2.318 4.57-5.216 4.8" fill="#F4BF1A" fill-rule="nonzero"/><path d="M121.13 60.761c.261 2.739-2.068 5.162-5.202 5.412s-5.886-1.767-6.147-4.506c-.26-2.739 2.069-5.161 5.203-5.411 3.134-.25 5.886 1.767 6.146 4.505" fill="#FFD949" fill-rule="nonzero"/><path d="M112.013 64.2c-.823-.69-1.327-1.612-1.421-2.598-.218-2.287 1.787-4.323 4.469-4.537 1.423-.113 2.822.31 3.837 1.163.823.69 1.328 1.613 1.422 2.598.217 2.288-1.787 4.323-4.47 4.537-1.422.114-2.82-.31-3.837-1.162" fill="#F4BF1A" fill-rule="nonzero"/><path d="M116.13 66.148l.116 1.218a6.62 6.62 0 00.403-.056l-.116-1.216a6.74 6.74 0 01-.403.054m-1.018.034l.116 1.219c.135.006.272.007.409.004l-.116-1.216a6.979 6.979 0 01-.41-.007m2.022-.225l.116 1.218c.134-.037.266-.079.396-.124l-.116-1.215c-.13.045-.262.084-.396.121m.986-.365l.116 1.22c.133-.063.263-.13.39-.202l-.117-1.218a6.044 6.044 0 01-.39.2m-4.04.459l.116 1.218c.137.03.276.055.416.075l-.116-1.219a6.314 6.314 0 01-.416-.074m-1.051-.321l.116 1.219c.138.056.28.108.423.154l-.116-1.217a6.046 6.046 0 01-.423-.155m-1.295-.729l.116 1.219c.14.105.286.203.437.296l-.116-1.22a5.658 5.658 0 01-.437-.295m-1.131-1.159l.116 1.222c.14.197.294.385.462.562l-.116-1.222a4.998 4.998 0 01-.462-.562" fill="#DCA815" fill-rule="nonzero"/><path d="M115.44 60.346l.713.6c.734.62 1.113 1.363.197 2.047-.916.684-1.833.345-2.573-.268l-1.681-1.393 3.696-2.775 2.735 2.325-.864.646-1.787-1.51-.437.328zm-1.539 1.152l.707.589c.223.186.473.295.757.083.283-.212.16-.416-.063-.602l-.705-.59-.696.52z" fill="#FFD949"/><path d="M129.513 90.447l-1.179.325c.127.111.257.216.391.314l1.18-.326a5.533 5.533 0 01-.392-.313m-.077 1.075c.194.1.393.186.597.257l1.186-.327a4.883 4.883 0 01-.607-.254l-1.176.324z" fill="#DCA815" fill-rule="nonzero"/><path d="M127.654 87.375c-.731-2.814.506-5.642 2.793-6.63a4.4 4.4 0 00-.599.119c-2.651.732-4.16 3.793-3.37 6.836.79 3.042 3.581 4.916 6.233 4.183.199-.055.39-.124.577-.205-2.461.323-4.903-1.489-5.634-4.303" fill="#F4BF1A" fill-rule="nonzero"/><path d="M133.887 91.559c-2.652.732-5.442-1.141-6.233-4.184-.79-3.043.718-6.104 3.37-6.836 2.652-.732 5.442 1.141 6.233 4.184.79 3.043-.719 6.103-3.37 6.836" fill="#FFD949" fill-rule="nonzero"/><path d="M128.916 83.177c.537-.93 1.358-1.587 2.312-1.85 2.216-.613 4.568 1.008 5.245 3.612.359 1.382.184 2.833-.479 3.981-.537.93-1.358 1.588-2.312 1.851-2.215.612-4.568-1.009-5.244-3.613-.359-1.381-.185-2.832.478-3.981" fill="#F4BF1A" fill-rule="nonzero"/><path d="M127.713 87.57l-1.18.325c.04.131.08.26.126.387l1.178-.325a6.74 6.74 0 01-.124-.388m-.21-.996l-1.18.326c.018.134.04.268.067.403l1.178-.325a6.515 6.515 0 01-.065-.404m.573 1.951l-1.18.325c.06.126.124.25.191.37l1.177-.325a6.362 6.362 0 01-.188-.37m.53.908l-1.18.326c.085.12.174.236.266.348l1.179-.326a6.044 6.044 0 01-.265-.348m-1.153-3.9l-1.18.326c-.004.14-.006.28-.001.422l1.18-.326a6.314 6.314 0 010-.422m.134-1.091l-1.18.326a6.121 6.121 0 00-.078.443l1.178-.325c.021-.15.048-.298.08-.444m.493-1.401l-1.18.326c-.08.155-.152.316-.216.48l1.18-.325c.065-.165.137-.326.216-.481m.945-1.316l-1.184.327c-.17.172-.328.356-.473.552l1.183-.326c.145-.196.303-.381.474-.553" fill="#DCA815" fill-rule="nonzero"/><path d="M133.308 85.882l-.468.807c-.482.83-1.148 1.333-1.981.55-.833-.784-.658-1.746-.183-2.58l1.08-1.899 3.375 3.159-1.815 3.097-.786-.74 1.176-2.02-.398-.374zm-1.403-1.315l-.457.798c-.144.253-.208.518.05.76.259.242.437.085.582-.167l.46-.796-.635-.595z" fill="#FFD949"/><path d="M29.363 56.602l4.257-1.142c-.46-.402-.934-.782-1.421-1.136l-4.262 1.143c.49.355.965.733 1.426 1.135m.254-3.862a18.16 18.16 0 00-2.165-.937l-4.285 1.15c.748.264 1.488.561 2.203.926l4.247-1.139z" fill="#DCA815" fill-rule="nonzero"/><path d="M36.159 67.68c2.71 10.125-1.7 20.255-9.956 23.754a15.95 15.95 0 002.165-.417c9.578-2.57 14.967-13.53 12.038-24.478-2.93-10.948-13.07-17.74-22.647-15.17a15.9 15.9 0 00-2.083.723c8.896-1.103 17.773 5.461 20.483 15.587" fill="#F4BF1A" fill-rule="nonzero"/><path d="M13.512 52.509c9.578-2.57 19.717 4.221 22.647 15.17 2.93 10.949-2.46 21.907-12.038 24.477-9.579 2.57-19.718-4.221-22.647-15.17-2.93-10.949 2.46-21.907 12.038-24.477" fill="#FFD949" fill-rule="nonzero"/><path d="M31.687 82.729c-1.922 3.329-4.878 5.67-8.324 6.596-8.002 2.147-16.551-3.729-19.058-13.098-1.33-4.972-.732-10.18 1.64-14.29 1.923-3.329 4.879-5.67 8.325-6.596 8.001-2.147 16.55 3.729 19.057 13.098 1.33 4.97.733 10.18-1.64 14.29" fill="#F4BF1A" fill-rule="nonzero"/><path d="M35.94 66.979l4.26-1.143a23.513 23.513 0 00-.463-1.393l-4.254 1.141c.168.455.315.923.457 1.395m.782 3.584l4.262-1.143c-.065-.483-.15-.967-.248-1.451l-4.256 1.142c.098.486.176.969.242 1.452m-2.115-7.021l4.26-1.143a23.91 23.91 0 00-.699-1.33l-4.25 1.14c.245.433.47.881.689 1.333m-1.94-3.273l4.264-1.145c-.31-.434-.635-.851-.971-1.256L31.7 59.01c.336.405.656.826.966 1.259m4.263 14.033l4.26-1.143c.015-.502.017-1.007-.004-1.517l-4.263 1.144c.02.51.021 1.014.007 1.516m-.456 3.916l4.26-1.142c.109-.524.204-1.054.275-1.592l-4.258 1.143a21.433 21.433 0 01-.277 1.591m-1.751 5.024l4.263-1.144c.282-.558.539-1.134.77-1.724l-4.266 1.144c-.231.59-.485 1.166-.767 1.724m-3.39 4.703l4.275-1.147a17.636 17.636 0 001.7-1.973l-4.273 1.146a17.657 17.657 0 01-1.702 1.974" fill="#DCA815" fill-rule="nonzero"/><path d="M15.736 72.914l1.675-2.889c1.723-2.972 4.124-4.762 7.155-1.93 3.031 2.833 2.42 6.287.72 9.273l-3.863 6.793L9.138 72.74l6.496-11.084 2.862 2.672-4.21 7.236 1.45 1.35zm5.103 4.752l1.636-2.855c.517-.903.741-1.853-.198-2.73-.94-.876-1.583-.316-2.102.586l-1.643 2.85 2.307 2.15z" fill="#FFD949"/></g></svg>