<svg width="234" height="303" xmlns="http://www.w3.org/2000/svg"><g fill="none"><g fill="#DCDCDC"><path opacity=".239" d="M225.064 302.938l8.566-4.865L9.983 167.081l-8.567 4.865z"/><path d="M144.023 250.037l-30.506 17.675-50.103-28.76 30.506-17.676z"/></g><path d="M139.401 224.787c.062.061.123.061.247.123l-44.496-25.866s-.061 0-.061-.062c-.062 0-.124-.061-.185-.061-.185-.123-.432-.185-.616-.308h-.062l-.37-.185-.37-.185c-.123-.061-.308-.123-.431-.184-.062 0-.123-.062-.185-.062l44.495 25.866h.062c.062 0 .062.061.123.061.124.062.308.124.432.185h.061c.124.062.247.123.37.123.123.062.308.123.432.185.123.185.37.246.554.37z" fill="#838383"/><path fill="#FCFCFC" d="M114.257 263.462L69.7 237.596v-3.14l44.495 25.865z"/><path d="M139.894 235.256c0-4.927-.986-6.343-2.28-7.082l-44.495-25.866c1.232.739 2.218 2.155 2.28 7.082 0 2.525 0 10.223-13.373 17.922L69.7 234.394l44.495 25.866 12.326-7.083c13.435-7.698 13.435-15.396 13.373-17.92z" fill="#DBDBDB"/><path fill="#9E9E9E" d="M132.622 209.575l-44.495-25.866 2.711-1.416 44.557 25.866z"/><path d="M134.533 226.45c-.37-.432-1.603-1.787-1.85-10.224-.06-1.355-.06-2.648-.06-3.818s0-2.156.06-2.833l-44.495-25.866c-.061 1.417-.061 3.942 0 6.651.247 8.438 1.48 9.792 1.85 10.224l.43.43c.124.124.309.247.494.309l44.495 25.865a2.728 2.728 0 01-.924-.739z" fill="#9E9E9E"/><path d="M132.622 209.575l2.712-1.416c-.062 1.416-.062 3.88 0 6.466.185 6.774 1.047 8.376 1.417 8.745.432.431.986.678 1.602.924 1.911.739 4.253 1.724 4.314 9.422 0 4.435-1.479 8.807-4.375 12.687-2.712 3.695-6.533 6.898-11.771 9.915l-12.326 7.083v-3.141l12.326-7.083c13.435-7.76 13.373-15.396 13.373-17.92 0-6.283-1.602-6.898-3.328-7.576-.74-.308-1.479-.554-2.095-1.232-.37-.43-1.602-1.786-1.849-10.223-.062-2.71 0-5.235 0-6.651z" fill="#757575"/><path fill="#C5C5C5" d="M11.03 14.842l6.348-3.695-.37 118.983-6.348 3.695z"/><path fill="#DCDCDC" d="M10.66 133.825l6.348-3.695 205.406 118.49-6.348 3.695z"/><path fill="#A7A7A7" d="M11.03 14.842l6.348-3.695 205.344 118.49-6.348 3.695z"/><path fill="#969696" d="M216.374 133.332l6.348-3.695-.308 118.983-6.348 3.695z"/><path fill="#6BB5E3" d="M216.374 133.332l-.308 118.983L10.66 133.825l.37-118.983z"/><path d="M213.355 120.584L14.05 5.604C7.826 1.971 2.587 4.188 1.54 10.47v2.217h-.185v.123l-.37 124.402c0 8.006 5.608 17.798 12.572 21.801l199.305 114.98c6.964 4.003 12.633.8 12.695-7.205l.37-124.403c.061-8.006-5.547-17.798-12.572-21.8zm2.711 131.731L10.66 133.825l.309-118.983 205.344 118.49-.247 118.983z" fill="#FFF"/><path d="M113.517 64.603c1.91 1.109 3.452 3.757 3.452 5.912 0 2.156-1.541 3.08-3.452 1.971-1.91-1.109-3.45-3.757-3.45-5.912 0-2.217 1.602-3.08 3.45-1.971z" fill="#737373"/><path d="M113.517 67.313c.555.308 1.048 1.17 1.048 1.847 0 .678-.493.924-1.048.616-.554-.308-1.047-1.17-1.047-1.847 0-.678.493-.986 1.047-.616z" fill="#383838"/><path d="M111.36 64.234c-.8.307-1.294 1.108-1.294 2.34 0 2.155 1.541 4.803 3.451 5.912.617.37 1.171.493 1.664.493l-3.82-8.745z" fill="#303030"/><path d="M219.764 116.889L20.459 1.909c-3.512-2.032-6.717-2.217-8.997-.862L5.114 4.742c2.28-1.355 5.485-1.17 8.998.862l199.304 114.98c6.964 4.003 12.634 13.795 12.572 21.801l-.37 124.403c0 4.003-1.417 6.774-3.697 8.067l6.348-3.695c2.28-1.293 3.697-4.126 3.697-8.067l.37-124.403c0-8.006-5.608-17.798-12.572-21.801z" fill="#E6E6E6"/><path fill="#E6E6E6" d="M9.181 13.795l-.123 119.599 208.795 119.968.124-119.537z"/><path fill="#4D4D4D" d="M9.181 13.795L9.058 25.25l208.795 119.968.124-11.393z"/><path d="M28.41 27.837c-.555-.308-.925-.062-.925.554v2.402c0 .616.431 1.293.924 1.6l3.39 1.972c.493.308.924.061.924-.555v-2.4c0-.616-.431-1.355-.924-1.663l-3.39-1.91zm-6.965-4.003c-.554-.308-.924-.062-.924.554v2.402c0 .615.431 1.293.924 1.6l3.39 1.972c.555.308.924.061.924-.555v-2.402c0-.615-.431-1.354-.924-1.662l-3.39-1.91zm-7.087-4.065c-.493-.308-.924-.062-.924.554v2.402c0 .616.431 1.355.924 1.601l3.39 1.971c.554.308.924.062.924-.554V23.34c0-.616-.431-1.355-.924-1.663l-3.39-1.91z" fill="#8C8C8C"/><path fill="#CC98ED" d="M94.598 140.846l-.062 24.141 26.562 15.335.061-24.142z"/><path fill="#4FB1FF" d="M58.484 120.523l-.062 24.203 26.562 15.273.061-24.142z"/><path fill-opacity=".393" fill="#5B50CC" d="M94.474 127.297v8.868l115.121 65.897.062-8.869z"/><path fill="#F66" d="M94.351 171.885v2.833l115.183 65.834v-2.77z"/><path fill="#FF9466" d="M16.022 70.392v18.476l71.057 41.016v-18.538z"/><path fill="#FAFF63" d="M16.145 124.587v4.989l70.996 40.954.061-4.989z"/><path fill="#F66" d="M170.647 167.574l39.01 22.232.123-39.969-39.072-22.232z"/><path fill="#FFF" d="M123.378 143.925l.123-46.559 47.084 26.852-.123 46.558z"/><path fill="#0062FF" d="M126.336 102.293l-.123 39.97 41.414 23.586.123-39.969z"/><path d="M94.598 89.915v2.032l28.533 16.443v-2.032zm0 3.264v2.032l28.533 16.443v-2.032zm50.042 102.539v1.91l19.166 11.023v-1.909zm-18.55-13.98v2.033l37.716 21.74v-2.033zm0-3.264v2.033l37.716 21.74v-2.033zm-26.809-63.063v1.848l23.789 13.733v-1.91zm26.87 59.861l-.061 2.032 37.716 21.74v-2.032zm-31.615-65.896v2.032l28.534 16.505v-2.033zm31.615 62.632v2.032l37.655 21.74v-2.032zm0-3.264v2.032l37.655 21.74v-2.032zm0-9.977v2.279l31.369 18.106v-2.279zm0 6.774v1.971l37.655 21.801.061-2.032zM94.536 99.645v2.032l28.534 16.444v-1.971zm31.615 62.632v2.033l37.716 21.74v-2.033zM94.598 96.443l-.062 1.97 28.534 16.505.061-2.032zm80.239 116.642l-.061 1.91 34.758 19.46v-1.909zm-7.827-7.759v2.032l42.524 23.957v-1.971zm0-3.264v2.032l42.524 24.018v-2.032zm0-3.202v2.031l42.524 23.957v-2.032zm0-3.265v2.032l42.524 23.957.061-1.97zm0-3.264v2.032l42.585 24.019v-2.033zm.062-9.977v2.279l35.93 20.2v-2.279zm-.062 6.775v1.97l42.585 24.019v-2.033zm.062-3.264l-.062 2.032 42.585 23.957v-2.033zM94.598 86.404v2.279l21.508 12.44.061-2.278zm-.062 16.506v2.031l28.534 16.444v-2.033zm0 3.263v2.032l28.534 16.444v-2.033zM56.943 78.768v1.97l30.136 17.43.062-2.033zm0-3.264v2.032l30.198 17.367v-1.97zm0-3.264v2.032l30.198 17.429v-2.033zm0-3.264v2.032l30.198 17.429v-2.033zm.062-6.713v2.278l25.144 14.535v-2.279zm0 3.51l-.062 2.032 30.198 17.368V83.14zm-.062 16.197v2.032l30.136 17.43v-2.033zm0 3.264v2.032l30.136 17.368v-1.971zM28.717 72.24v1.909l25.021 14.41v-1.908zM16.022 61.647v2.032l37.716 21.74v-2.032zm0-3.264v2.032l37.716 21.74v-2.032zm.062-3.203l-.062 1.971 37.716 21.74v-1.97zm0-3.264v2.033l37.654 21.74v-2.033zm0-3.264v2.033l37.654 21.74v-2.033zm0-9.976v2.278l29.89 17.244V55.92zm0 6.712v2.033l37.654 21.74.062-1.971zm0-3.202v2.032L53.8 65.958v-2.032zm54.047 53.887v1.91l16.948 9.791v-1.909zM28.84 126.435v1.909l24.96 14.41.062-1.908zm-12.695-10.593v2.032l37.717 21.74v-2.032zm0-3.264v2.032l37.717 21.74v-2.032zm0-3.202v1.97l37.717 21.802v-2.033zm.062-3.264v2.032l37.655 21.74v-2.033zm0-3.264v2.032l37.655 21.74v-2.033zm0-9.978v2.28l29.89 17.243v-2.278zm0 6.775v1.97l37.655 21.74v-1.97zm0-3.264v2.032l37.716 21.74v-2.032z" fill="#E8E8E8"/></g></svg>