<svg xmlns="http://www.w3.org/2000/svg" width="246" height="99"><path d="M103 61.675l7.961-10.04-7.01-9.31h3.246l3.755 4.95c.782 1.025 1.324 1.81 1.637 2.356a29.978 29.978 0 011.64-2.156l4.112-5.15h2.988l-7.155 9.197 7.703 10.153h-3.346l-5.196-6.902c-.298-.393-.58-.783-.845-1.17-.46.647-.786 1.102-.987 1.36l-5.223 6.712H103zm21.741 0v-19.35h2.732v19.353h-2.732v-.003zm5.274 0l7.901-19.353h2.997l8.385 19.353H146.2l-2.383-5.865h-8.674l-2.235 5.865h-2.892zm5.927-7.945h7.02l-2.148-5.365c-.647-1.63-1.138-2.976-1.478-4.039a26.157 26.157 0 01-1.137 3.725l-2.257 5.679zm14.689-1.473c0-3.208.92-5.72 2.756-7.535 1.835-1.815 4.206-2.722 7.11-2.722 1.904 0 3.616.43 5.145 1.28 1.525.851 2.69 2.041 3.49 3.567.8 1.524 1.203 3.254 1.203 5.187 0 1.959-.421 3.717-1.267 5.26-.845 1.549-2.036 2.722-3.58 3.513-1.55.797-3.216 1.193-5.006 1.193-1.944 0-3.674-.44-5.202-1.32-1.526-.879-2.687-2.077-3.473-3.598a10.357 10.357 0 01-1.176-4.825zm2.82.045c0 2.33.667 4.164 1.997 5.5 1.333 1.338 3.006 2.01 5.022 2.01 2.051 0 3.733-.675 5.063-2.026 1.324-1.351 1.986-3.27 1.986-5.758 0-1.571-.283-2.945-.848-4.118a6.277 6.277 0 00-2.483-2.725c-1.092-.644-2.316-.966-3.673-.966-1.929 0-3.587.622-4.977 1.865-1.393 1.241-2.088 3.313-2.088 6.218zm20.335 9.373v-19.35h4.086l4.871 13.697c.451 1.275.776 2.23.984 2.866.235-.704.605-1.738 1.101-3.103l4.959-13.46h3.65v19.353h-2.619v-16.19l-6.01 16.19h-2.456l-5.948-16.487v16.487h-2.618v-.003zm24.482 0v-19.35H201v19.353h-2.732v-.003zM94.343 37c.363 0 .657.276.657.62v28.76c0 .341-.294.62-.657.62H63.657c-.363 0-.657-.279-.657-.62V37.62c0-.344.294-.62.657-.62h30.686zm-2.86 7.079h-3.946v15.505h3.947V44.08zm-24.967 0V59.58h3.944V47.357c1.243-.015 5.903-.067 7.74-.042 1.428.02 2.407.919 2.417 2.307l.072 9.935 3.83-.015s-.04-7.555-.043-11.09c0-2.214-1.69-4.331-4.188-4.331h-9.825l-3.947-.042zm10.996 5.982h-4.035v9.396h4.035v-9.396z" fill="#FFF" opacity=".692"/></svg>