<svg xmlns="http://www.w3.org/2000/svg" width="246" height="99"><path d="M120.746 63.119h5.616V51.578c0-6.107-3.9-9.342-8.606-9.342-3.12 0-5.46 1.346-7.15 3.209h-.754c-1.274-1.656-3.484-3.209-6.786-3.209-2.99 0-5.356 1.32-6.604 2.82h-.754v-2.25h-5.226v20.287h5.564v-10.61c0-3.622 1.066-4.864 4.81-4.864 3.744 0 4.758 1.242 4.758 4.864v10.61h5.616v-10.61c0-3.622 1.04-4.864 4.758-4.864 3.744 0 4.758 1.242 4.758 4.864V63.12zM68.148 60.22c-.988-.724-1.456-1.785-1.456-3.415 0-2.045.624-4.529 1.664-5.616.728-.724 1.768-1.06 3.172-1.06 2.002 0 4.472.517 5.486 1.578.702.699 1.014 1.656 1.014 3.002 0 1.94-.546 4.657-1.768 5.796-.702.621-1.612.906-2.938.906-1.794-.026-4.056-.44-5.174-1.19zm8.814 4.27l-.234 1.863 5.226.647 2.47-20.106-5.226-.647-.234 1.94h-.624c-.78-1.37-2.86-3.234-6.812-3.234-5.486 0-9.542 4.037-10.27 9.549a11.429 11.429 0 00-.104 1.63c0 5.279 3.588 9.6 9.204 10.221.312.026.624.052.936.026 2.34 0 4.108-1.01 5.018-1.889h.65zm118.014-5.952c-4.186 0-5.564-1.371-5.564-5.537s1.378-5.59 5.564-5.59 5.564 1.424 5.564 5.59-1.378 5.537-5.564 5.537zm-26.832 0c-4.186 0-5.564-1.371-5.564-5.537s1.378-5.59 5.564-5.59 5.564 1.424 5.564 5.59-1.378 5.537-5.564 5.537zm-26.13 0c-4.186 0-5.564-1.371-5.564-5.537s1.378-5.59 5.564-5.59 5.564 1.424 5.564 5.59-1.378 5.537-5.564 5.537zM53.406 36L50 63.093l5.538.672 3.354-27.092L53.406 36zm147.368 25.178v1.966H206V42.857h-5.226v1.967h-.754c-.832-1.113-2.938-2.562-5.772-2.562-6.214 0-10.478 4.71-10.478 10.739 0 6.03 4.264 10.713 10.478 10.713 2.834 0 4.94-1.45 5.772-2.562l.754.026zm-58.76-18.916c-6.916 0-11.206 4.71-11.206 10.739 0 6.03 4.29 10.713 11.206 10.713 6.916 0 11.206-4.684 11.206-10.713 0-6.03-4.29-10.739-11.206-10.739zm32.006 18.916v1.966h5.226V36.233h-5.538v8.565h-.754c-.832-1.113-2.704-2.562-5.538-2.562-6.214 0-10.478 4.71-10.478 10.739 0 6.03 4.264 10.713 10.478 10.713 2.834 0 5.044-1.45 5.85-2.562 0 .052.754.052.754.052z" fill="#FFF" opacity=".692"/></svg>