<svg xmlns="http://www.w3.org/2000/svg" width="246" height="99"><g fill="#FFF" opacity=".692"><path d="M209.786 58.725c-2.426 0-3.671-.459-4.367-1.619-.528-.897-.76-2.407-.76-4.595 0-2.451.317-4.093.929-5.1.801-1.334 2.11-1.553 4.387-1.553h6.793V41h-8.522c-3.038 0-5.359.963-6.898 2.91-1.245 1.576-1.772 3.699-1.941 5.821v-.11h-11.392v-3.346c0-.11 0-.329.043-.35.042-.044.105-.066.443-.066h11.18v-4.858h-13.122c-.231 0-.632 0-1.012.065v-.065h-20.251v1.335c-2.215-1.335-4.915-1.335-6.814-1.335-2.468 0-5.843 0-8.206 2.45-1.075 1.117-1.687 2.473-2.046 3.983-.042-1.4-.274-2.844-1.076-4.136-1.413-2.297-3.607-2.297-4.788-2.297h-9.113c-1.245 0-2.173.35-2.87 1.072a2.831 2.831 0 00-.653 1.007c-.148-.22-.316-.394-.443-.57C127.874 41 126.038 41 124.92 41h-13.036v13.875c0 .832 0 2.232-.697 3.064-.548.678-1.687 1.05-3.227 1.05-1.561 0-2.595-.35-3.185-1.072-.654-.788-.718-1.838-.718-3.064v-13.83H98.7v4.88H87.202c-.443 0-.759.043-.97.24-.232.241-.232.788-.232.963 0 .613.105 1.116 1.202 1.51l7.025 2.407c1.498.504 2.426 1.05 3.038 1.686 1.012 1.05 1.497 2.582 1.519 4.595.168 1.357.654 2.758 1.793 4.027 2.257 2.516 5.737 2.516 7.235 2.516.717 0 1.878 0 3.143-.284h1.034v.044h5.232V56.21h8.206c1.286 0 2.594-.46 3.46-1.226.147-.109.231-.218.337-.35v8.95h5.231V46.515c0-.394 0-.437.106-.503.105-.11.105-.11.443-.11h5.885c.485 0 1.118 0 1.456.35.147.154.443.657.443 2.255 0 1.291-.169 2.123-.317 2.407-.21.35-.59.503-1.286.503h-3.629c-1.666 0-2.426 1.16-2.426 2.298v.46c0 1.05.865 2.079 1.14 2.363l6.539 7.003h6.961s-5.653-5.668-7.446-7.506h.548c2.046 0 3.502-.897 4.325-2.626.21-.394.337-.744.443-1.16v.219c0 2.45 0 6.5 2.468 9.082C152.47 64 155.993 64 158.314 64c2.362 0 5.927 0 8.248-2.45 2.173-2.298 2.426-6.062 2.426-9.082 0-2.232-.148-4.64-.928-6.653h4.577v17.704h5.295V45.815h4.789V59.58c0 .678 0 2.079.97 3.086.865.897 1.877.897 2.763.897h13.29v-4.88H188.67c-.337 0-.59-.044-.696-.044 0-.044-.042-.066-.042-.153v-4.027h11.35c.147 2.254.632 4.552 2.109 6.368 2.004 2.451 4.81 2.736 6.708 2.736H217v-4.88h-7.214v.044zm-84.634-7.856c-.337.438-.928.46-1.772.46h-6.096v-5.055c0-.11 0-.285.042-.35h6.118c.422 0 1.244 0 1.687.46.274.327.443 1.071.443 2.231 0 1.423-.253 2.035-.422 2.254zm37.592 6.96c-.865 1.16-2.258 1.4-4.325 1.4-2.152 0-3.46-.219-4.303-1.4-.696-.942-1.013-2.649-1.013-5.275 0-2.648.317-4.355 1.013-5.274.822-1.16 2.215-1.357 4.324-1.357 2.046 0 3.502.22 4.325 1.357.422.57 1.012 1.751 1.012 5.274.021 2.583-.337 4.333-1.033 5.274z"/><path d="M80.288 59.03h11.68c.666 0 1.032-.223 1.032-1.427 0-.512 0-1.092-1.334-1.537l-7.7-2.63c-.172-.045-1.72-.558-2.753-1.872-1.054-1.382-1.205-3.299-1.205-4.57 0-1.426.172-3.253 1.527-4.568C82.847 41.066 84.504 41 85.214 41H38v23h42.288v-4.97zm34.068-25.838l-3.207 3.715v-5.423h.743v3.531l3.208-3.762v5.424h-.744zm3.08.346h2.061v-2.054h.722v5.193h-.722v-2.424h-2.061v2.424h-.743v-5.193h.743zm5.715-1.292v4.431h-.744v-4.431h-1.104v-.762h2.931v.762zm4.801 0h-1.87v1.246h1.848v.715h-1.848v1.754h1.87v.716h-2.613v-5.193h2.613zm4.928-.761v5.192h-.722v-4.432h-1.615v2.584c0 .6-.042 1.177-.488 1.593-.234.23-.553.3-.871.3-.15 0-.234-.046-.32-.046v-.716c.065.046.17.046.277.046.17 0 .34-.069.425-.184.234-.254.234-.785.234-1.223v-3.116h3.08zm5.12 0v5.192h-.723v-4.432h-1.614v2.584c0 .6-.043 1.177-.49 1.593-.233.23-.551.3-.87.3-.149 0-.234-.046-.319-.046v-.716c.064.046.17.046.277.046.17 0 .34-.069.424-.184.234-.254.234-.785.234-1.223v-3.116h3.08zm4.226.761h-1.89v1.246h1.848v.715h-1.848v1.754h1.89v.716h-2.612v-5.193h2.612zm2.167 1.338l1.806-2.1h.977l-2.167 2.354 2.167 2.839h-.977l-1.678-2.308-.128.184v2.124h-.743v-5.193h.743zm5.226-1.338v4.431h-.744v-4.431h-1.083v-.762h2.91v.762zm2.549-.762l1.253 2.7 1.105-2.7h.743l-2.124 5.193h-.786l.637-1.547-1.699-3.646zm4.737 3.185l.722-1.754.701 1.754h-1.423zm2.23 2.008h.808l-2.273-5.493-2.38 5.493h.808l.53-1.247h2.019l.488 1.247zm5.375-5.192v5.192h-.722v-4.432h-1.615v2.584c0 .6-.042 1.177-.488 1.593-.234.23-.553.3-.871.3-.15 0-.234-.046-.319-.046v-.716c.064.046.17.046.276.046.17 0 .34-.069.425-.184.234-.254.234-.785.234-1.223v-3.116h3.08zm2.336 2.838h.532c.764 0 .934.461.934.83 0 .785-.765.785-.934.785h-.532v-1.615zm-.743 2.354h1.296c.276 0 .7-.047 1.04-.254.383-.3.595-.785.595-1.246 0-.485-.17-.877-.446-1.131-.34-.346-.828-.416-1.19-.416h-.552v-2.123h-.722l-.021 5.17zm4.843-3.139h2.061v-2.054h.743v5.193h-.743v-2.424h-2.061v2.424h-.722v-5.193h.722zm5.141.785h.531c.765 0 .935.461.935.83 0 .785-.765.785-.935.785h-.531v-1.615zm-.744 2.354h1.296c.276 0 .701-.047 1.041-.254.383-.3.595-.785.595-1.246 0-.485-.17-.877-.446-1.131-.34-.346-.829-.416-1.19-.416h-.552v-2.123h-.722v5.17h-.022zm3.42-5.193v5.193h.723v-5.193h-.722zm4.993.762h-1.934v1.246h1.849v.715h-1.849v1.754h1.934v.716H181.1v-5.193h2.656zm7.031.461c-.531-.53-1.02-.577-1.296-.577-1.04 0-1.742.831-1.742 1.962 0 1.108.722 1.938 1.742 1.938.552 0 1.02-.3 1.296-.6v.947c-.489.3-.977.369-1.317.369-.871 0-1.402-.416-1.678-.716-.553-.577-.765-1.223-.765-1.961 0-.946.34-1.639.765-2.054a2.347 2.347 0 011.699-.692c.425 0 .87.069 1.296.369v1.015zm1.232 3.97l.998-5.562 1.678 4.015 1.679-4.015.913 5.562h-.765l-.488-3.093-1.402 3.369-1.36-3.415-.488 3.139zm7.775-2.008l.722-1.754.7 1.754h-1.422zm2.23 2.008h.807l-2.273-5.493-2.379 5.493h.807l.531-1.247h2.018l.489 1.247zm1.678-4.5c.489-.693 1.084-.762 1.423-.762.277 0 .701.046 1.041.37.234.23.383.576.383.945 0 .462-.213.877-.595 1.108.87.254.87 1.223.87 1.315 0 .577-.212.993-.636 1.247a1.94 1.94 0 01-1.126.346c-1.126 0-1.615-.785-1.785-1.246l.638-.347c.17.416.53.877 1.19.877.233 0 .488-.046.658-.184a.817.817 0 00.34-.693c0-.83-.829-.876-1.147-.876h-.425v-.739h.425c.424 0 .87-.23.87-.785 0-.184-.042-.346-.17-.461-.17-.185-.424-.185-.552-.185-.34 0-.7.116-.977.531l-.425-.461zm5.29 1.407l1.848-2.1h.977l-2.167 2.354 2.167 2.839h-.977l-1.7-2.308-.148.184v2.124h-.723v-5.193h.723zm7.158-.392l-3.207 3.715v-5.423h.722v3.531l3.208-3.762v5.424h-.723z"/></g></svg>