<svg xmlns="http://www.w3.org/2000/svg" width="246" height="99"><path d="M66 36h3.004v14.968H78V52H66zm28 0v1.034h-9.101v5.722h6.089v1.032h-6.089v7.18H94V52H82V36zm21 0v1.034h-6.097V52h-2.816V37.034H100V36zm7 0h3v16h-3zm29.885 22c-.85 0-1.698-.078-2.54-.226a17.015 17.015 0 01-2.462-.619c-.78-.26-1.538-.558-2.257-.89a21.097 21.097 0 01-2.011-1.082 19.21 19.21 0 01-1.652-1.154c-.483-.4-.88-.777-1.194-1.14a7.763 7.763 0 01-2.738-1.188 9.274 9.274 0 01-2.127-1.99 9.65 9.65 0 01-1.407-2.497 7.623 7.623 0 01-.497-2.702c0-.78.115-1.535.329-2.261.215-.725.52-1.4.933-2.03a8.783 8.783 0 011.46-1.729 8.765 8.765 0 011.898-1.328 10.808 10.808 0 012.287-.858c.826-.203 1.698-.306 2.593-.306s1.767.103 2.585.307c.811.206 1.568.491 2.28.858a8.344 8.344 0 011.904 1.328 8.306 8.306 0 011.469 1.728c.413.63.727 1.306.933 2.03.214.726.329 1.48.329 2.261 0 .636-.076 1.265-.252 1.893a7.65 7.65 0 01-.688 1.819 8.4 8.4 0 01-1.102 1.647c-.412.518-.91.98-1.43 1.4a9.864 9.864 0 01-1.736 1.07 8.71 8.71 0 01-2.004.646c.199.545.52 1.089.963 1.632a7.72 7.72 0 001.63 1.474c.627.433 1.33.786 2.088 1.062.765.27 1.583.41 2.417.41V58h-.001zm-9.385-5.594c.987-.106 1.859-.362 2.639-.77a5.98 5.98 0 001.927-1.626c.528-.672.918-1.472 1.194-2.395.275-.93.413-1.965.413-3.103 0-1.127-.138-2.162-.413-3.106-.276-.941-.658-1.753-1.194-2.435a5.152 5.152 0 00-1.927-1.588c-.772-.382-1.652-.569-2.64-.569-1.024 0-1.904.187-2.684.57a5.142 5.142 0 00-1.927 1.587c-.52.683-.918 1.494-1.178 2.435-.252.944-.382 1.98-.382 3.106 0 1.138.13 2.194.382 3.16.26.964.658 1.798 1.178 2.502a5.34 5.34 0 001.927 1.642c.78.395 1.66.59 2.685.59zM159 36h2.53v10.145c0 .669.106 1.29.324 1.882.225.583.541 1.098.95 1.544.404.435.906.783 1.474 1.04.581.257 1.222.38 1.936.38.72 0 1.38-.123 1.948-.38a4.379 4.379 0 001.467-1.04c.41-.446.713-.96.938-1.544.21-.593.317-1.213.317-1.882V36H172v10.145c0 .799-.126 1.555-.37 2.26a5 5 0 01-1.175 1.867c-.529.535-1.216.953-2.055 1.263-.832.312-1.83.465-2.985.465-1.044 0-1.969-.153-2.768-.465-.8-.31-1.467-.73-2.008-1.272-.535-.538-.945-1.164-1.222-1.884S159 46.897 159 46.092V36zm33 0v1.034h-9.098v5.722h6.083v1.032h-6.083v7.18H192V52h-12V36zM87.542 65.607c-.58 0-1.044.216-1.38.64-.329.425-.503 1.012-.503 1.76 0 .762.168 1.352.488 1.766.32.418.785.624 1.383.624.369 0 .793-.071 1.263-.22v.597c-.366.148-.818.226-1.355.226-.775 0-1.379-.263-1.8-.782-.421-.519-.638-1.261-.638-2.225 0-.597.107-1.126.308-1.58.204-.449.498-.8.885-1.042.378-.25.836-.371 1.355-.371.555 0 1.037.114 1.452.337l-.265.587a2.55 2.55 0 00-1.193-.317zM101 67.997c0 .936-.3 1.67-.916 2.202-.625.535-1.479.801-2.58.801-1.118 0-1.98-.263-2.597-.788-.608-.525-.907-1.266-.907-2.222 0-.95.3-1.684.916-2.202.612-.525 1.48-.788 2.597-.788 1.1 0 1.946.263 2.571.795.617.539.916 1.265.916 2.202zm-6.066 0c0 .791.22 1.387.66 1.794.432.414 1.075.616 1.91.616.846 0 1.48-.202 1.912-.613.44-.407.66-1.003.66-1.798 0-.781-.22-1.38-.652-1.784-.43-.404-1.073-.606-1.91-.606-.845 0-1.488.202-1.92.61-.44.41-.66 1.006-.66 1.78zM111 69.365c0 .519-.213.92-.612 1.207-.4.286-.957.428-1.647.428-.755 0-1.342-.088-1.741-.266v-.658c.264.101.546.182.85.24.305.06.606.09.91.09.491 0 .876-.087 1.11-.255a.829.829 0 00.382-.718c0-.203-.044-.371-.132-.496-.088-.131-.238-.25-.44-.36a7.4 7.4 0 00-.953-.368c-.583-.2-1.012-.425-1.261-.691-.25-.266-.378-.617-.378-1.045 0-.448.176-.81.546-1.075.374-.263.858-.398 1.467-.398.627 0 1.198.107 1.727.317l-.22.593a4.286 4.286 0 00-1.537-.304c-.388 0-.693.075-.913.236-.22.149-.322.364-.322.641 0 .202.04.37.12.492.082.135.22.25.408.364.186.101.484.222.88.35.663.22 1.132.459 1.374.705.254.253.382.577.382.97zM119.13 71l-2.4-5.324h-.036c.04.427.081.926.081 1.505V71H116v-6h1.249l2.224 4.952h.049L121.775 65H123v6h-.82v-3.867c0-.44.036-.922.081-1.443h-.045L119.804 71h-.674zM135 71h-4v-6h4v.617h-3.177v1.932h2.978v.621h-2.978v2.206H135zm7.302 0h-.617v-5.383H140V65h4v.617h-1.697V71zm9.865 0v-6h.666v6zm8.373-5.393c-.574 0-1.038.216-1.374.64-.336.425-.507 1.012-.507 1.76 0 .762.172 1.352.49 1.766.323.418.787.624 1.38.624.372 0 .793-.071 1.27-.22v.597c-.367.148-.819.226-1.356.226-.782 0-1.386-.263-1.802-.782-.428-.519-.641-1.261-.641-2.225 0-.597.104-1.126.312-1.58.201-.449.494-.8.885-1.042.378-.25.83-.371 1.356-.371.55 0 1.032.114 1.447.337l-.263.587a2.531 2.531 0 00-1.196-.317zM172 69.365c0 .519-.206.92-.609 1.207-.411.286-.962.428-1.659.428-.748 0-1.328-.088-1.732-.266v-.658a4.993 4.993 0 001.761.33c.492 0 .867-.087 1.109-.255a.821.821 0 00.381-.718c0-.203-.044-.371-.132-.496-.088-.131-.242-.25-.447-.36a6.514 6.514 0 00-.947-.368c-.587-.2-1.013-.425-1.27-.691-.25-.266-.367-.617-.367-1.045 0-.448.176-.81.543-1.075.367-.263.859-.398 1.46-.398.64 0 1.211.107 1.74.317l-.22.593a4.303 4.303 0 00-1.534-.304c-.397 0-.705.075-.925.236-.22.149-.323.364-.323.641 0 .202.037.37.117.492.081.135.213.25.419.364.183.101.484.222.88.35.661.22 1.116.459 1.373.705.257.253.382.577.382.97z" fill="#FFF" opacity=".692"/></svg>