<svg xmlns="http://www.w3.org/2000/svg" width="104" height="16"><path d="M4.029 16a.999.999 0 01-.56-.17.853.853 0 01-.372-.915l1.158-4.732L.327 6.99a.847.847 0 01-.28-.943.944.944 0 01.823-.61l5.196-.438L8.12.54C8.272.212 8.617 0 9 0s.728.212.88.538l2.054 4.46 5.195.438a.945.945 0 01.824.61.847.847 0 01-.28.943l-3.927 3.194 1.158 4.73a.854.854 0 01-.372.917c-.31.209-.724.225-1.051.043L9 13.389l-4.48 2.485c-.152.083-.32.126-.491.126zm21.776 0a.913.913 0 01-.53-.17.878.878 0 01-.35-.915l1.093-4.732L22.31 6.99a.878.878 0 01-.265-.943.901.901 0 01.777-.61l4.908-.438L29.669.54A.904.904 0 0130.5 0c.363 0 .689.212.832.538l1.94 4.46 4.907.438a.9.9 0 01.778.61.878.878 0 01-.265.943l-3.709 3.194 1.094 4.73a.879.879 0 01-.351.917.915.915 0 01-.993.043L30.5 13.389l-4.232 2.485a.92.92 0 01-.463.126zm21.224 0a.999.999 0 01-.56-.17.853.853 0 01-.372-.915l1.158-4.732-3.928-3.193a.847.847 0 01-.28-.943.944.944 0 01.823-.61l5.196-.438L51.12.54c.152-.328.497-.54.88-.54s.728.212.88.538l2.054 4.46 5.195.438a.945.945 0 01.824.61.847.847 0 01-.28.943l-3.927 3.194 1.158 4.73a.854.854 0 01-.372.917c-.31.209-.724.225-1.051.043L52 13.389l-4.48 2.485c-.152.083-.32.126-.491.126zm21.776 0a.913.913 0 01-.53-.17.878.878 0 01-.35-.915l1.093-4.732L65.31 6.99a.878.878 0 01-.265-.943.901.901 0 01.777-.61l4.908-.438L72.669.54A.904.904 0 0173.5 0c.363 0 .689.212.832.538l1.94 4.46 4.907.438a.9.9 0 01.778.61.878.878 0 01-.265.943l-3.709 3.194 1.094 4.73a.879.879 0 01-.351.917.915.915 0 01-.993.043L73.5 13.389l-4.232 2.485a.92.92 0 01-.463.126zm31.166 0a.999.999 0 00.56-.17.853.853 0 00.372-.915l-1.158-4.732 3.928-3.193a.847.847 0 00.28-.943.944.944 0 00-.823-.61l-5.196-.438L95.88.54C95.728.212 95.383 0 95 0s-.728.212-.88.538l-2.054 4.46-5.195.438a.945.945 0 00-.824.61.847.847 0 00.28.943l3.927 3.194-1.158 4.73a.854.854 0 00.372.917c.31.209.724.225 1.051.043L95 13.389l4.48 2.485c.152.083.32.126.491.126zm-2.24-2.246c-.113 0-.113-2.575 0-7.724l-.792-.536c.136.3.44.506.793.536l4.906.413-3.708 3.016a.85.85 0 00-.303.866l1.093 4.465-1.922-.946c-.152-.084.105-.09-.065-.09z" fill="#FFF" opacity=".819"/></svg>