<svg xmlns="http://www.w3.org/2000/svg" xmlns:xlink="http://www.w3.org/1999/xlink" width="246" height="99"><defs><path id="a" d="M0 0h181v30H0z"/></defs><g transform="translate(33 35)" fill="none" fill-rule="evenodd" opacity=".692"><mask id="b" fill="#fff"><use xlink:href="#a"/></mask><path fill="#FFF" d="M15.13 29.502h13.44v-13.75H15.13v13.75zm-15.13 0h13.441v-13.75H0v13.75zm15.13-15.478h13.44V.274H15.13v13.75zm-15.13 0h13.441V.274H0v13.75zm138.75 12.908c-.586 1.521-1.477 2.284-2.67 2.284a2.652 2.652 0 01-1.997-.86c-.544-.577-.953-1.43-1.23-2.565-.146-.64-.255-1.424-.328-2.36a41.585 41.585 0 01-.11-3.252c0-3.095.298-5.42.905-6.967.598-1.547 1.496-2.318 2.687-2.318.788 0 1.448.296 1.98.894.531.591.935 1.479 1.21 2.655.146.64.256 1.424.33 2.36.072.941.109 2.034.109 3.293 0 3.033-.293 5.31-.885 6.836zm4.07-10.783c-.275-1.15-.69-2.16-1.24-3.027-.641-1.01-1.424-1.767-2.347-2.262-.923-.503-1.997-.75-3.226-.75-1.228 0-2.31.247-3.238.743-.936.495-1.71 1.238-2.335 2.228-.53.867-.929 1.878-1.185 3.033-.263 1.156-.39 2.456-.39 3.9 0 1.465.127 2.785.39 3.948.256 1.169.654 2.18 1.185 3.026.605.99 1.37 1.733 2.292 2.228.922.495 2.016.743 3.281.743 1.045 0 1.999-.207 2.859-.612.863-.413 1.632-1.018 2.31-1.824.679-.824 1.192-1.862 1.534-3.121.348-1.252.52-2.717.52-4.388 0-1.424-.134-2.71-.41-3.865zM95.542 26.932c-.587 1.521-1.479 2.284-2.67 2.284a2.653 2.653 0 01-1.999-.86c-.543-.577-.952-1.43-1.228-2.565-.146-.64-.256-1.424-.33-2.36a42.592 42.592 0 01-.11-3.252c0-3.095.3-5.42.905-6.967.599-1.547 1.498-2.318 2.689-2.318.787 0 1.448.296 1.979.894.531.591.934 1.479 1.21 2.655.147.64.256 1.424.329 2.36.075.941.11 2.034.11 3.293 0 3.033-.292 5.31-.885 6.836zm2.829-13.81c-.642-1.01-1.423-1.767-2.346-2.262-.922-.503-1.998-.75-3.226-.75s-2.31.247-3.24.743c-.934.495-1.71 1.238-2.333 2.228-.532.867-.929 1.878-1.185 3.033-.263 1.156-.391 2.456-.391 3.9 0 1.465.128 2.785.39 3.948.257 1.169.654 2.18 1.186 3.026.605.99 1.369 1.733 2.291 2.228.923.495 2.017.743 3.282.743 1.044 0 1.997-.207 2.86-.612.86-.413 1.63-1.018 2.31-1.824.677-.824 1.19-1.862 1.533-3.121.348-1.252.518-2.717.518-4.388 0-1.424-.133-2.71-.409-3.865-.274-1.15-.69-2.16-1.24-3.027zm73.053 3.177c0-1.794.268-3.142.802-4.05.54-.901 1.338-1.355 2.401-1.355.215 0 .426.028.624.09.198.055.384.137.564.24.558.35.973 1.107 1.248 2.27.27 1.162.408 2.744.408 4.745h-6.047v-1.94zm9.035 7.924c-.846 1.61-1.745 2.813-2.688 3.617-.948.805-1.937 1.21-2.964 1.21-1.134 0-1.98-.584-2.545-1.76-.557-1.17-.838-2.923-.838-5.255v-3.053h9.432c-.145-2.517-.684-4.54-1.62-6.066-.558-.929-1.23-1.63-2.023-2.097-.792-.475-1.704-.71-2.73-.71-1.062 0-2.016.27-2.85.813-.84.536-1.56 1.355-2.155 2.448-.503.928-.88 1.94-1.133 3.04-.253 1.107-.378 2.304-.378 3.604 0 1.444.125 2.744.383 3.9.253 1.155.643 2.165 1.164 3.032.612 1.011 1.369 1.767 2.274 2.263.9.502 1.957.75 3.163.75 1.17 0 2.262-.433 3.27-1.307 1.008-.867 1.932-2.18 2.778-3.934l-.54-.495zm-13.123 3.975a2.236 2.236 0 01-1.108.316c-.51 0-.893-.22-1.158-.653-.258-.433-.39-1.08-.39-1.946V11.39h3.059v-.784h-3.06V2.847l-3.285 1.94v5.818h-2.264v.784h2.264v13.577c0 1.67.284 2.93.857 3.769.566.845 1.428 1.265 2.58 1.265.737 0 1.435-.185 2.102-.564.662-.372 1.297-.942 1.9-1.705l-.339-.496c-.396.434-.78.756-1.158.963zm-9.993-13.672c-.005-.936-.19-1.741-.555-2.4a3.74 3.74 0 00-1.506-1.528c-.64-.35-1.375-.53-2.206-.53-.789 0-1.578.269-2.367.812-.788.537-1.578 1.355-2.367 2.449v-2.972l-5.27.248v.784h2.115v17.332h-2.116v.743h7.101v-.743h-1.83V14.278c.628-.97 1.244-1.699 1.853-2.194.604-.488 1.196-.736 1.77-.736.735 0 1.29.268 1.66.798.378.536.563 1.327.563 2.38V28.72h-1.865v.743h7.137v-.743h-2.117V14.526zm-31.332 8.659a14.921 14.921 0 01-1.082 2.73c-.56 1.073-1.21 1.878-1.94 2.414a4.054 4.054 0 01-2.443.804c-1.158 0-2.157-.406-2.992-1.21-.842-.812-1.514-2.03-2.023-3.658-.421-1.322-.632-2.972-.632-4.953v-7.221c0-2.91.31-5.262.924-7.05.62-1.795 1.55-3.02 2.794-3.68a4.08 4.08 0 011-.405 3.81 3.81 0 011-.131c1.718 0 3.062.715 4.026 2.14.965 1.43 1.549 3.576 1.759 6.444l.667-.041-.28-9.368h-.702c-.087.454-.238.79-.455 1.018-.216.226-.509.344-.877.344-.192 0-.41-.041-.648-.118a4.814 4.814 0 01-.755-.336 29.097 29.097 0 00-.893-.489 2.321 2.321 0 00-.474-.213 4.58 4.58 0 00-.684-.151 6.99 6.99 0 00-.894-.055 6.995 6.995 0 00-2.952.626c-.912.412-1.765 1.046-2.555 1.891a13.04 13.04 0 00-1.81 2.641c-.522.998-.96 2.125-1.31 3.384-.28.99-.492 2.063-.631 3.212a30.59 30.59 0 00-.211 3.68c0 1.423.064 2.681.187 3.782.123 1.107.304 2.056.55 2.861.665 2.188 1.683 4.002 3.05 5.446.772.806 1.579 1.41 2.42 1.824a5.997 5.997 0 002.63.612c.632 0 1.246-.097 1.836-.282a6.327 6.327 0 001.706-.832 19.02 19.02 0 011.339-.874c.327-.186.537-.282.625-.282.369 0 .65.146.835.44.194.289.287.736.287 1.335h.667l.316-9.656h-.667a23.931 23.931 0 01-.707 3.377zM83.407.33l-5.032.248v.784h2.02V28.72h-2.089v.743h7.12v-.743h-2.02V.331zm-9.541 26.602c-.587 1.521-1.48 2.284-2.67 2.284a2.657 2.657 0 01-2-.86c-.542-.577-.952-1.43-1.227-2.565-.147-.64-.256-1.424-.33-2.36a42.082 42.082 0 01-.11-3.252c0-3.095.3-5.42.905-6.967.598-1.547 1.496-2.318 2.688-2.318.788 0 1.448.296 1.98.894.531.591.934 1.479 1.21 2.655.146.64.256 1.424.33 2.36.073.941.11 2.034.11 3.293 0 3.033-.294 5.31-.886 6.836zm4.069-10.783c-.275-1.15-.69-2.16-1.24-3.027-.642-1.01-1.424-1.767-2.347-2.262-.922-.503-1.997-.75-3.226-.75-1.228 0-2.31.247-3.238.743-.935.495-1.711 1.238-2.334 2.228-.532.867-.929 1.878-1.186 3.033-.263 1.156-.39 2.456-.39 3.9 0 1.465.127 2.785.39 3.948.257 1.169.654 2.18 1.186 3.026.604.99 1.368 1.733 2.29 2.228.923.495 2.017.743 3.282.743 1.045 0 1.998-.207 2.86-.612.861-.413 1.63-1.018 2.309-1.824.679-.824 1.192-1.862 1.534-3.121.348-1.252.52-2.717.52-4.388 0-1.424-.135-2.71-.41-3.865zm-19.427 8.858c0 .37-.072.729-.222 1.08-.145.35-.372.694-.678 1.024-.307.31-.613.544-.925.709-.307.158-.624.24-.948.24-.775 0-1.357-.248-1.754-.75-.39-.494-.588-1.251-.588-2.262 0-1.01.066-1.863.192-2.565.132-.695.33-1.231.6-1.603.289-.433.72-.763 1.297-.984.577-.226 1.297-.336 2.162-.336h.864v5.447zm4.82 3.206c-.282.226-.57.343-.858.343-.27 0-.468-.144-.6-.434-.126-.287-.193-.722-.193-1.3V15.557c0-1.052-.114-1.947-.348-2.682-.228-.736-.57-1.3-1.02-1.692-.396-.35-.936-.619-1.615-.798-.684-.186-1.5-.275-2.456-.275-.612 0-1.206.069-1.776.213a6.806 6.806 0 00-1.645.654c-.666.35-1.17.77-1.507 1.265a2.832 2.832 0 00-.51 1.665c0 1.073.168 1.877.51 2.413.337.537.841.805 1.507.805.63 0 1.098-.227 1.41-.68.307-.454.463-1.135.463-2.043-.006-.206-.066-.44-.168-.709-.102-.26-.21-.55-.312-.853a3.21 3.21 0 01-.168-.955c0-.31.18-.544.546-.71.36-.157.913-.24 1.65-.24.571 0 1.027.104 1.357.31.33.206.57.53.708.962.139.434.211.984.205 1.658v4.952H57.39c-2.539 0-4.442.522-5.702 1.575-1.267 1.046-1.897 2.614-1.897 4.698 0 .7.078 1.34.24 1.91.156.579.39 1.08.696 1.514.342.475.757.833 1.236 1.08.475.24 1.015.365 1.61.365.9 0 1.759-.248 2.569-.743.816-.495 1.59-1.238 2.329-2.228.126.516.27.955.426 1.32.15.364.312.64.475.825.197.268.455.475.774.613.318.144.684.213 1.098.213.667 0 1.273-.186 1.82-.564.545-.372 1.044-.942 1.494-1.706l-.396-.495c-.27.454-.547.79-.835 1.019zM41.011 17.125h-2.356V1.321h2.356c1.034 0 1.915.199 2.647.59.725.4 1.297.998 1.707 1.803.34.619.59 1.403.756 2.358.16.95.244 2.078.244 3.378 0 5.117-1.785 7.675-5.354 7.675zm8.697-11.671c-.392-1.115-.97-2.05-1.737-2.813a7.212 7.212 0 00-2.594-1.637c-1-.364-2.136-.55-3.402-.55h-9.46v.867h2.57v27.276h-2.57v.867h9.067v-.867h-2.927V17.95h3.284c5.568 0 8.352-2.888 8.352-8.666 0-1.444-.196-2.723-.583-3.83z" mask="url(#b)"/></g></svg>