<svg width="19" height="19" xmlns="http://www.w3.org/2000/svg"><g fill="none" fill-rule="evenodd"><path d="M17.155 9.495l1.393 1.375a8.71 8.71 0 00.122-.794L17.276 8.7a8.89 8.89 0 01-.121.796m1.551-.756a7.925 7.925 0 00-.121-1.035L17.183 6.32c.065.345.115.693.134 1.047l1.39 1.372z" fill="#DCA815" fill-rule="nonzero"/><path d="M14.387 14.538c-3.313 3.27-8.218 3.82-11.416 1.437.196.256.41.503.645.735 3.134 3.095 8.579 2.736 12.16-.8 3.583-3.537 3.946-8.912.811-12.006a7.05 7.05 0 00-.745-.637c2.415 3.157 1.858 8-1.455 11.27" fill="#F4BF1A" fill-rule="nonzero"/><path d="M15.198 2.531c3.134 3.095 2.771 8.47-.811 12.007-3.582 3.536-9.027 3.895-12.161.8-3.134-3.094-2.771-8.47.81-12.006 3.583-3.537 9.027-3.895 12.162-.8" fill="#FFD949" fill-rule="nonzero"/><path d="M7.564 16.15c-1.717 0-3.284-.613-4.412-1.726C.534 11.838.898 7.273 3.963 4.247 5.59 2.64 7.74 1.72 9.86 1.72c1.718 0 3.284.613 4.412 1.726 2.618 2.585 2.255 7.15-.81 10.177-1.627 1.606-3.776 2.527-5.897 2.527" fill="#F4BF1A" fill-rule="nonzero"/><path d="M14.609 14.3l1.394 1.376c.151-.158.297-.32.436-.485l-1.392-1.374a10.97 10.97 0 01-.438.483m-1.212 1.09l1.394 1.377c.172-.132.34-.271.506-.416l-1.392-1.374a11.6 11.6 0 01-.508.413m2.243-2.359l1.395 1.376c.126-.184.246-.37.359-.56l-1.391-1.373c-.113.189-.236.374-.362.557m.833-1.464l1.396 1.378c.098-.215.188-.431.27-.649l-1.394-1.376a9.702 9.702 0 01-.272.647m-4.478 4.727l1.394 1.376a9.51 9.51 0 00.586-.336l-1.395-1.377c-.192.12-.387.231-.585.337m-1.617.69l1.394 1.376c.227-.073.453-.154.677-.246l-1.393-1.375a9.99 9.99 0 01-.678.245m-2.335.439l1.395 1.378c.279-.016.559-.045.839-.087l-1.396-1.378c-.28.042-.56.072-.838.087m-2.577-.257l1.399 1.38c.373.1.755.171 1.143.215l-1.398-1.38a7.975 7.975 0 01-1.144-.215" fill="#DCA815" fill-rule="nonzero"/><path d="M7.799 7.885l1.492.003c1.535.003 2.764.526 2.345 2.31-.419 1.784-1.892 2.312-3.427 2.322l-3.492.022 1.675-7.217 5.74.036-.394 1.684-3.74-.012-.2.852zm-.7 3l1.471-.005c.465-.001.883-.125 1.012-.678.13-.552-.231-.675-.696-.674l-1.47.001-.316 1.357z" fill="#FFD949"/></g></svg>