<svg width="166" height="25" xmlns="http://www.w3.org/2000/svg"><defs><linearGradient x1="82.74%" y1="84.307%" x2="19.717%" y2="19.487%" id="a"><stop stop-color="#FFF" stop-opacity="0" offset="0%"/><stop stop-color="#FFF" offset="100%"/></linearGradient><linearGradient x1="76.846%" y1="75.005%" x2="23.91%" y2="22.253%" id="b"><stop stop-color="#FFF" offset="0%"/><stop stop-color="#FFF" stop-opacity="0" offset="100%"/></linearGradient></defs><g fill="none"><path d="M6.9 22.5c-.7.7-1.6 1.1-2.7 1.1s-2-.4-2.7-1.1C.8 21.8.4 20.9.4 19.8V3.6c0-1 .3-1.8.9-2.5C1.9.5 2.8.2 3.9.2c.9 0 1.7.2 2.3.6.6.4 1 1.1 1.1 1.9l.1.9c.6-1.1 1.5-2 2.7-2.6 1.2-.6 2.4-.9 3.7-.9 2.8 0 5 1.2 6.4 3.5.7-1.1 1.7-2 3-2.6 1.3-.6 2.7-.9 4.1-.9 3 0 5.4 1 7.2 2.9 1.8 1.9 2.7 4.4 2.7 7.4v9.3c0 1.1-.3 2-1 2.7-.7.7-1.6 1.1-2.7 1.1s-2-.4-2.7-1.1c-.7-.7-1-1.6-1-2.7v-9.1c0-1-.3-1.9-1-2.7-.7-.7-1.6-1.1-2.6-1.1s-1.9.3-2.6 1c-.7.7-1.1 1.6-1.1 2.7v9.2c0 1.1-.3 2-1 2.7-.7.7-1.6 1.1-2.7 1.1s-2-.4-2.7-1.1c-.7-.7-1-1.6-1-2.7v-9.1c0-1-.3-1.9-1-2.7-.7-.7-1.6-1.1-2.6-1.1s-1.9.4-2.6 1.1c-.7.8-1.1 1.7-1.1 2.8v9c.2 1.1-.2 2-.9 2.8zm46.2 1c-1.9 0-3.8-.5-5.5-1.4-1.7-.9-3.2-2.3-4.3-4.1-1.1-1.8-1.7-3.9-1.7-6.1 0-2.3.6-4.4 1.7-6.2 1.1-1.8 2.5-3.2 4.3-4.1C49.3.7 51.1.2 53.1.2c1.5 0 2.9.3 4.2.9 1.3.6 2.2 1.4 2.8 2.4l.1-1c.1-.7.5-1.2 1.1-1.7.6-.4 1.4-.6 2.3-.6 1 0 1.8.3 2.4 1 .6.7 1 1.6 1 2.7v15.9c0 1.1-.3 2-.9 2.7-.6.7-1.4 1.1-2.5 1.1-1 0-1.8-.2-2.4-.7-.6-.5-1-1-1.1-1.7l-.1-1c-.6 1-1.5 1.8-2.8 2.4-1.3.6-2.6.9-4.1.9zm-2.4-8c1 1 2.2 1.5 3.7 1.5 1.4 0 2.6-.5 3.7-1.5 1-1 1.5-2.2 1.5-3.7 0-1.4-.5-2.6-1.5-3.7-1-1-2.2-1.5-3.7-1.5-1.4 0-2.6.5-3.7 1.5-1 1-1.5 2.2-1.5 3.7-.1 1.5.4 2.7 1.5 3.7zm54.5 7c-.7.7-1.6 1.1-2.7 1.1s-2-.4-2.7-1.1c-.7-.7-1.1-1.6-1.1-2.7V3.6c0-1 .3-1.8.9-2.5.6-.6 1.5-.9 2.6-.9.9 0 1.7.2 2.3.6.6.4 1 1.1 1.1 1.9l.1.9c.6-1.1 1.5-2 2.7-2.6 1.2-.6 2.4-.9 3.7-.9 2.8 0 5 1.2 6.4 3.5.7-1.1 1.7-2 3-2.6 1.3-.6 2.7-.9 4.1-.9 3 0 5.4 1 7.2 2.9 1.8 1.9 2.7 4.4 2.7 7.4v9.3c0 1.1-.3 2-1 2.7-.7.7-1.6 1.1-2.7 1.1s-2-.4-2.7-1.1c-.7-.7-1-1.6-1-2.7v-9.1c0-1-.3-1.9-1-2.7-.7-.7-1.6-1.1-2.6-1.1s-1.9.3-2.6 1c-.7.7-1.1 1.6-1.1 2.7v9.2c0 1.1-.3 2-1 2.7-.7.7-1.6 1.1-2.7 1.1s-2-.4-2.7-1.1c-.7-.7-1-1.6-1-2.7v-9.1c0-1-.3-1.9-1-2.7-.7-.7-1.6-1.1-2.6-1.1s-1.9.4-2.6 1.1c-.7.8-1.1 1.7-1.1 2.8v9c.1 1.1-.2 2-.9 2.8zm46.2 1c-1.9 0-3.8-.5-5.5-1.4-1.7-.9-3.2-2.3-4.3-4.1-1.1-1.8-1.7-3.9-1.7-6.1 0-2.3.6-4.4 1.7-6.2 1.1-1.8 2.5-3.2 4.3-4.1 1.7-.9 3.5-1.4 5.5-1.4 1.5 0 2.9.3 4.2.9 1.3.6 2.2 1.4 2.8 2.4l.1-1c.1-.7.5-1.2 1.1-1.7.6-.4 1.4-.6 2.3-.6 1 0 1.8.3 2.4 1 .6.7 1 1.6 1 2.7v15.9c0 1.1-.3 2-.9 2.7-.6.7-1.4 1.1-2.5 1.1-1 0-1.8-.2-2.4-.7-.6-.5-1-1-1.1-1.7l-.1-1c-.6 1-1.5 1.8-2.8 2.4-1.3.6-2.7.9-4.1.9zm-2.5-8c1 1 2.2 1.5 3.7 1.5 1.4 0 2.6-.5 3.7-1.5 1-1 1.5-2.2 1.5-3.7 0-1.4-.5-2.6-1.5-3.7-1-1-2.2-1.5-3.7-1.5-1.4 0-2.6.5-3.7 1.5-1 1-1.5 2.2-1.5 3.7s.5 2.7 1.5 3.7z" fill="#FFF"/><path d="M15.3 11.3l-4.8 5.2 5.7 6c1 1 5.6-4.5 5.1-5l-6-6.2z" fill="url(#a)" opacity=".7" transform="translate(71.8 .1)"/><path d="M6.5 11.6l4.9-5-5-5.4C5.5.2.6 5.4 1.1 5.9l5.4 5.7z" fill="url(#b)" opacity=".7" transform="translate(71.8 .1)"/><g transform="translate(71.8 .1)" fill="#FFF"><path d="M21.3 5.7c.5-.5.8-1.2.8-2.1 0-1-.3-1.8-1-2.5S19.6 0 18.6 0s-2 .5-3 1.5L.7 17.7c-.5.5-.7 1.2-.7 2.1 0 1 .3 1.8 1 2.5s1.5 1.1 2.5 1.1 2-.5 2.9-1.5L21.3 5.7z"/><circle cx="3.8" cy="3.6" r="3.6"/><circle cx="18.6" cy="19.9" r="3.6"/></g></g></svg>