<svg width="150" height="152" xmlns="http://www.w3.org/2000/svg" xmlns:xlink="http://www.w3.org/1999/xlink"><defs><ellipse id="b" cx="74.421" cy="63.727" rx="43.22" ry="43.253"/><filter x="-64.8%" y="-49.7%" width="229.6%" height="229.5%" filterUnits="objectBoundingBox" id="a"><feOffset dy="13" in="SourceAlpha" result="shadowOffsetOuter1"/><feGaussianBlur stdDeviation="16.5" in="shadowOffsetOuter1" result="shadowBlurOuter1"/><feColorMatrix values="0 0 0 0 0 0 0 0 0 0 0 0 0 0 0 0 0 0 0.19457654 0" in="shadowBlurOuter1"/></filter></defs><g fill="none" fill-rule="evenodd"><ellipse stroke="#9898B6" stroke-width=".512" opacity=".557" cx="74.421" cy="63.727" rx="51.915" ry="51.954"/><ellipse stroke="#C293BF" stroke-width=".512" opacity=".077" cx="74.676" cy="63.983" rx="63.424" ry="63.471"/><use fill="#000" filter="url(#a)" xlink:href="#b"/><use fill="#FFF" xlink:href="#b"/><g fill="#605ED8" fill-rule="nonzero"><path d="M74.39 55.027c-5.126 0-9.297 4.2-9.297 9.363 0 5.163 4.17 9.363 9.297 9.363 5.126 0 9.297-4.2 9.297-9.363 0-5.163-4.17-9.363-9.297-9.363zm0 16.79c-4.067 0-7.375-3.331-7.375-7.427s3.308-7.428 7.375-7.428 7.375 3.332 7.375 7.428-3.308 7.428-7.375 7.428z"/><path d="M88.784 62.907a1.821 1.821 0 01-.942-1.303 1.831 1.831 0 01.443-1.549c1.11-1.236 1.293-2.968.465-4.412-.827-1.444-2.408-2.15-4.027-1.8a1.828 1.828 0 01-2.202-1.86c.062-1.668-.904-3.113-2.46-3.683-1.555-.57-3.217-.089-4.234 1.227-.347.45-.871.708-1.437.708-.566 0-1.09-.258-1.437-.708-1.017-1.316-2.679-1.798-4.234-1.227-1.556.57-2.522 2.015-2.46 3.681a1.828 1.828 0 01-2.202 1.861c-1.619-.35-3.2.357-4.027 1.8-.828 1.445-.645 3.177.465 4.413.38.423.54.988.443 1.549a1.821 1.821 0 01-.942 1.303c-1.464.78-2.223 2.344-1.936 3.986.288 1.642 1.533 2.85 3.173 3.08.56.077 1.044.405 1.327.899.283.493.323 1.08.11 1.607-.623 1.545-.207 3.235 1.061 4.307 1.269 1.072 2.994 1.192 4.396.305a1.816 1.816 0 012.701.99c.508 1.587 1.907 2.612 3.562 2.612 1.656 0 3.054-1.025 3.562-2.612a1.816 1.816 0 012.701-.99c1.402.887 3.127.767 4.396-.305 1.268-1.072 1.685-2.762 1.061-4.307a1.834 1.834 0 01.11-1.607 1.809 1.809 0 011.327-.9c1.64-.228 2.886-1.437 3.173-3.079.287-1.642-.472-3.207-1.936-3.986zm.043 3.65c-.11.636-.575 1.363-1.543 1.498a3.718 3.718 0 00-2.728 1.85 3.769 3.769 0 00-.226 3.303c.368.912-.026 1.68-.517 2.095-.49.415-1.31.672-2.138.149a3.696 3.696 0 00-3.27-.35 3.733 3.733 0 00-2.282 2.385c-.3.937-1.092 1.27-1.733 1.27s-1.433-.333-1.733-1.27a3.733 3.733 0 00-2.282-2.385 3.706 3.706 0 00-3.27.35c-.828.523-1.647.266-2.138-.149-.492-.415-.885-1.183-.517-2.095a3.769 3.769 0 00-.226-3.304 3.718 3.718 0 00-2.728-1.85c-.968-.134-1.432-.862-1.544-1.497-.11-.636.078-1.48.942-1.94a3.743 3.743 0 001.936-2.677 3.763 3.763 0 00-.91-3.183c-.656-.73-.547-1.588-.226-2.147.32-.559 1.003-1.082 1.959-.876a3.7 3.7 0 003.192-.798 3.757 3.757 0 001.334-3.027c-.036-.984.594-1.57 1.197-1.79.602-.222 1.46-.18 2.06.597a3.71 3.71 0 002.954 1.455 3.71 3.71 0 002.954-1.455c.6-.778 1.458-.819 2.06-.598.602.221 1.233.808 1.197 1.791a3.757 3.757 0 001.334 3.027 3.7 3.7 0 003.192.798c.956-.207 1.638.317 1.959.876.32.56.43 1.417-.226 2.147a3.763 3.763 0 00-.91 3.183 3.744 3.744 0 001.935 2.677c.865.46 1.054 1.304.942 1.94z"/><path d="M78.466 64.166c-.328-.268-.764-.402-1.309-.402-.548 0-.983.134-1.305.402-.322.268-.483.691-.483 1.27v1.757c0 .578.16 1.001.483 1.27.322.268.757.402 1.305.402.545 0 .98-.134 1.309-.403.328-.268.492-.69.492-1.269v-1.758c0-.578-.164-1-.492-1.269zm-.688 3.027c0 .396-.207.595-.62.595-.406 0-.61-.199-.61-.595v-1.758c0-.396.204-.594.61-.594.413 0 .62.198.62.594v1.758zm-.836-7.738a.771.771 0 00-.498-.186c-.242 0-.41.104-.507.31l-4.239 8.927a.537.537 0 00-.06.235.64.64 0 00.197.452.656.656 0 00.493.204c.265 0 .446-.103.543-.31l4.25-8.926a.533.533 0 00.049-.236.582.582 0 00-.228-.47zm-4.032.725c-.329-.269-.765-.403-1.31-.403-.548 0-.983.134-1.305.402-.322.269-.483.692-.483 1.27v1.757c0 .578.161 1.001.483 1.27.322.268.757.402 1.306.402.544 0 .98-.134 1.308-.402.329-.269.493-.692.493-1.27v-1.758c0-.577-.165-1-.493-1.269zm-.688 3.026c0 .397-.207.595-.621.595-.406 0-.609-.198-.609-.595v-1.758c0-.396.203-.594.609-.594.414 0 .62.198.62.594v1.758z"/></g></g></svg>