<svg width="150" height="152" xmlns="http://www.w3.org/2000/svg" xmlns:xlink="http://www.w3.org/1999/xlink"><defs><ellipse id="b" cx="74.421" cy="63.727" rx="43.22" ry="43.253"/><filter x="-64.8%" y="-49.7%" width="229.6%" height="229.5%" filterUnits="objectBoundingBox" id="a"><feOffset dy="13" in="SourceAlpha" result="shadowOffsetOuter1"/><feGaussianBlur stdDeviation="16.5" in="shadowOffsetOuter1" result="shadowBlurOuter1"/><feColorMatrix values="0 0 0 0 0 0 0 0 0 0 0 0 0 0 0 0 0 0 0.22693048 0" in="shadowBlurOuter1"/></filter></defs><g fill="none" fill-rule="evenodd"><ellipse stroke="#9898B6" stroke-width=".512" opacity=".557" cx="74.421" cy="63.727" rx="51.915" ry="51.954"/><ellipse stroke="#C293BF" stroke-width=".512" opacity=".077" cx="74.676" cy="63.983" rx="63.424" ry="63.471"/><use fill="#000" filter="url(#a)" xlink:href="#b"/><use fill="#FFF" xlink:href="#b"/><g fill="#605ED8" fill-rule="nonzero"><path d="M88.667 48.105h-2.762v-2.387a.99.99 0 00-1.002-.977H63.537a.99.99 0 00-1.002.977v27.374a.99.99 0 001.002.977H66.3v2.388a.99.99 0 001.002.977h21.366a.99.99 0 001.002-.977V49.082a.99.99 0 00-1.002-.977zm-22.368.977v23.033h-1.76v-25.42h19.362v1.41h-16.6a.99.99 0 00-1.002.977zM87.665 75.48H68.303V50.059h19.362v25.42z"/><path d="M81.395 58.753h-3.792v-3.697a.99.99 0 00-1.001-.977c-3.195 0-5.795 2.535-5.795 5.651 0 3.117 2.6 5.653 5.795 5.653s5.795-2.536 5.795-5.653a.99.99 0 00-1.002-.977zm-4.793 4.676c-2.09 0-3.791-1.66-3.791-3.699 0-1.7 1.183-3.136 2.789-3.566v3.566a.99.99 0 001.002.977h3.657c-.44 1.567-1.913 2.722-3.657 2.722z"/><path d="M79.367 51.384a.99.99 0 00-1.002.977v4.674a.99.99 0 001.002.977h4.793a.99.99 0 001.002-.977c0-3.141-2.628-5.651-5.795-5.651zm1.001 4.674v-2.59c1.287.344 2.302 1.334 2.656 2.59h-2.656zM84.8 67.547H70.928a.99.99 0 00-1.001.977.99.99 0 001.001.977H84.8a.99.99 0 001.001-.977.99.99 0 00-1.001-.977zm0 3.739H70.928a.99.99 0 00-1.001.977.99.99 0 001.001.977H84.8a.99.99 0 001.001-.977.99.99 0 00-1.001-.977z"/></g></g></svg>