<svg width="150" height="152" xmlns="http://www.w3.org/2000/svg" xmlns:xlink="http://www.w3.org/1999/xlink"><defs><ellipse id="b" cx="75.022" cy="63.812" rx="43.094" ry="43.31"/><filter x="-65%" y="-49.6%" width="229.9%" height="229.3%" filterUnits="objectBoundingBox" id="a"><feOffset dy="13" in="SourceAlpha" result="shadowOffsetOuter1"/><feGaussianBlur stdDeviation="16.5" in="shadowOffsetOuter1" result="shadowBlurOuter1"/><feColorMatrix values="0 0 0 0 0 0 0 0 0 0 0 0 0 0 0 0 0 0 0.22693048 0" in="shadowBlurOuter1"/></filter></defs><g fill="none" fill-rule="evenodd"><ellipse stroke="#9898B6" stroke-width=".512" opacity=".557" cx="75.022" cy="63.812" rx="51.764" ry="52.023"/><ellipse stroke="#C293BF" stroke-width=".512" opacity=".077" cx="75.277" cy="64.068" rx="63.239" ry="63.555"/><use fill="#000" filter="url(#a)" xlink:href="#b"/><use fill="#FFF" xlink:href="#b"/><path d="M90.93 59.104a.955.955 0 00.944-.965V52.99a.955.955 0 00-.944-.965H60.07a.955.955 0 00-.944.965v5.149c0 .533.423.965.944.965 1.563 0 2.834 1.3 2.834 2.896 0 1.597-1.27 2.896-2.834 2.896a.955.955 0 00-.944.965v5.149c0 .533.423.965.944.965h30.86a.955.955 0 00.944-.965v-5.15a.955.955 0 00-.944-.965c-1.563 0-2.834-1.3-2.834-2.896 0-1.597 1.27-2.896 2.834-2.896zm-.945 7.626v3.314H70.147v-2.896a.955.955 0 00-.945-.965.955.955 0 00-.944.965v2.896h-7.243V66.73c2.153-.449 3.779-2.4 3.779-4.73 0-2.33-1.626-4.281-3.779-4.73v-3.314h7.243v2.896c0 .533.423.965.944.965a.955.955 0 00.945-.965v-2.896h19.838v3.314c-2.153.449-3.779 2.4-3.779 4.73 0 2.33 1.626 4.281 3.779 4.73z" fill="#605ED8" fill-rule="nonzero"/><path d="M69.202 59.748a.955.955 0 00-.944.965v2.574c0 .533.423.965.944.965a.955.955 0 00.945-.965v-2.574a.955.955 0 00-.945-.965z" fill="#605ED8" fill-rule="nonzero"/></g></svg>