<svg width="150" height="152" xmlns="http://www.w3.org/2000/svg" xmlns:xlink="http://www.w3.org/1999/xlink"><defs><ellipse id="b" cx="74.421" cy="63.727" rx="43.22" ry="43.253"/><filter x="-64.8%" y="-49.7%" width="229.6%" height="229.5%" filterUnits="objectBoundingBox" id="a"><feOffset dy="13" in="SourceAlpha" result="shadowOffsetOuter1"/><feGaussianBlur stdDeviation="16.5" in="shadowOffsetOuter1" result="shadowBlurOuter1"/><feColorMatrix values="0 0 0 0 0 0 0 0 0 0 0 0 0 0 0 0 0 0 0.175016984 0" in="shadowBlurOuter1"/></filter></defs><g fill="none" fill-rule="evenodd"><ellipse stroke="#9898B6" stroke-width=".512" opacity=".293" cx="74.421" cy="63.727" rx="51.915" ry="51.954"/><ellipse stroke="#447C22" stroke-width=".512" opacity=".077" cx="74.676" cy="63.983" rx="63.424" ry="63.471"/><use fill="#000" filter="url(#a)" xlink:href="#b"/><use fill="#FFF" xlink:href="#b"/><g fill="#605ED8" fill-rule="nonzero"><path d="M77.114 62.769l-1.36-1.357a.964.964 0 00-1.361 0 .958.958 0 000 1.357l1.36 1.357a.964.964 0 001.361 0 .958.958 0 000-1.357zm0 5.429a.964.964 0 00-1.36 0l-1.361 1.357a.958.958 0 000 1.357.964.964 0 001.36 0l1.361-1.357a.958.958 0 000-1.357zm-2.439-2.983H72.75a.95.95 0 00-.962.947c0 .53.43.96.962.96h1.925c.531 0 .962-.43.962-.96a.95.95 0 00-.962-.947zm4.617-6.401a.961.961 0 00-.962.96v1.919a.961.961 0 001.924 0v-1.92a.96.96 0 00-.962-.96zm4.626 2.598a.964.964 0 00-1.36 0l-1.361 1.357a.958.958 0 000 1.357.964.964 0 001.36 0l1.361-1.357a.958.958 0 000-1.357z"/><path d="M93.444 76.34l-3.402-3.392 2.041-2.036a.958.958 0 00-.282-1.552V50.816a2.886 2.886 0 00-2.886-2.88H63.768a2.886 2.886 0 00-2.886 2.88v21.24a2.886 2.886 0 002.886 2.88h17.306l1.251 3.744a.961.961 0 001.593.375l2.042-2.036 3.402 3.393a.964.964 0 001.36 0l2.722-2.714a.958.958 0 000-1.357zm-9.34-26.484h4.81c.531 0 .963.43.963.96v2.879h-5.773v-3.84zm-21.298.96c0-.53.432-.96.962-.96H82.18v3.839H62.806v-2.88zm.962 22.2a.962.962 0 01-.962-.96V55.614h27.07v13.1L79.46 65.251a.964.964 0 00-.985.232.958.958 0 00-.232.982l2.19 6.55H63.767zm26.274 5.36l-3.402-3.393a.963.963 0 00-1.36 0L83.658 76.6l-.973-2.91v-.001l-2.009-6.01 8.945 2.974L88 72.269a.958.958 0 000 1.357l3.402 3.393-1.361 1.357z"/></g></g></svg>