<svg width="150" height="152" xmlns="http://www.w3.org/2000/svg" xmlns:xlink="http://www.w3.org/1999/xlink"><defs><ellipse id="b" cx="74.421" cy="63.727" rx="43.22" ry="43.253"/><filter x="-64.8%" y="-49.7%" width="229.6%" height="229.5%" filterUnits="objectBoundingBox" id="a"><feOffset dy="13" in="SourceAlpha" result="shadowOffsetOuter1"/><feGaussianBlur stdDeviation="16.5" in="shadowOffsetOuter1" result="shadowBlurOuter1"/><feColorMatrix values="0 0 0 0 0 0 0 0 0 0 0 0 0 0 0 0 0 0 0.175016984 0" in="shadowBlurOuter1"/></filter></defs><g fill="none" fill-rule="evenodd"><ellipse stroke="#9898B6" stroke-width=".512" opacity=".293" cx="74.421" cy="63.727" rx="51.915" ry="51.954"/><ellipse stroke="#447C22" stroke-width=".512" opacity=".077" cx="74.676" cy="63.983" rx="63.424" ry="63.471"/><use fill="#000" filter="url(#a)" xlink:href="#b"/><use fill="#FFF" xlink:href="#b"/><path d="M81.861 65.21c4.776 0 8.66-3.875 8.66-8.636 0-4.763-3.884-8.637-8.66-8.637-4.775 0-8.66 3.874-8.66 8.637a8.56 8.56 0 00.667 3.32l-4.092 2.217a6.735 6.735 0 00-5.363-2.658c-3.714 0-6.736 3.013-6.736 6.717 0 3.7 3.019 6.718 6.736 6.718 2.12 0 4.083-.99 5.352-2.644l7.383 4.197a4.768 4.768 0 00-.226 1.454c0 2.646 2.158 4.798 4.811 4.798s4.811-2.152 4.811-4.798-2.158-4.799-4.81-4.799a4.806 4.806 0 00-3.645 1.671l-7.385-4.198a6.668 6.668 0 00.445-2.399c0-.838-.156-1.64-.438-2.382l4.092-2.216a8.663 8.663 0 007.058 3.639zm0-1.919a6.715 6.715 0 01-4.166-1.443 4.792 4.792 0 014.166-2.395c1.744 0 3.315.921 4.167 2.395a6.714 6.714 0 01-4.167 1.443zm-1.924-7.677a1.924 1.924 0 013.849 0 1.924 1.924 0 01-3.849 0zm1.924-5.758c3.714 0 6.736 3.013 6.736 6.718a6.668 6.668 0 01-1.208 3.833 6.689 6.689 0 00-2.658-2.239c.609-.679.98-1.574.98-2.554a3.848 3.848 0 00-3.85-3.839 3.848 3.848 0 00-3.848 3.839c0 .98.37 1.875.979 2.554a6.688 6.688 0 00-2.658 2.239 6.668 6.668 0 01-1.208-3.833c0-3.705 3.021-6.718 6.735-6.718zM64.413 70.969a4.79 4.79 0 01-2.4-.642 2.896 2.896 0 012.4-1.278c.977 0 1.871.493 2.4 1.278a4.79 4.79 0 01-2.4.642zm-.962-4.799a.962.962 0 011.924 0 .962.962 0 01-1.924 0zm4.81 2.878a4.826 4.826 0 00-1.45-1.277 2.857 2.857 0 00.489-1.6 2.886 2.886 0 00-2.887-2.88 2.886 2.886 0 00-2.887 2.88c0 .591.18 1.142.489 1.6a4.826 4.826 0 00-1.45 1.277 4.765 4.765 0 01-.963-2.878c0-2.646 2.158-4.798 4.811-4.798s4.811 2.152 4.811 4.798a4.765 4.765 0 01-.964 2.878zm13.472 3.968a2.886 2.886 0 012.887 2.879 2.886 2.886 0 01-2.887 2.879 2.886 2.886 0 01-2.887-2.88 2.886 2.886 0 012.887-2.878z" fill="#605ED8" fill-rule="nonzero"/></g></svg>